<svg width="64" height="64" viewBox="0 0 64 64" fill="none" xmlns="http://www.w3.org/2000/svg">
<path d="M48 30C48 22.268 41.732 16 34 16H14C6.26801 16 0 22.268 0 30C0 37.732 6.26801 44 14 44H34C41.732 44 48 37.732 48 30Z" fill="#78350F"/>
<path d="M56 24C59.3137 24 62 26.6863 62 30C62 33.3137 59.3137 36 56 36V24Z" stroke="#78350F" stroke-width="4"/>
<path d="M12 8C12 5.79086 13.7909 4 16 4C18.2091 4 20 5.79086 20 8V12C20 14.2091 18.2091 16 16 16C13.7909 16 12 14.2091 12 12V8Z" fill="#FDE68A" fill-opacity="0.5"/>
<path d="M24 8C24 5.79086 25.7909 4 28 4C30.2091 4 32 5.79086 32 8V12C32 14.2091 30.2091 16 28 16C25.7909 16 24 14.2091 24 12V8Z" fill="#FDE68A" fill-opacity="0.5"/>
</svg>
